<svg xmlns="http://www.w3.org/2000/svg" version="1.1" xmlns:xlink="http://www.w3.org/1999/xlink" xmlns:svgjs="http://svgjs.dev/svgjs" width="1000" height="212" viewBox="0 0 1000 212"><g transform="matrix(1,0,0,1,-0.6060606060606233,-0.6243935658776678)"><svg viewBox="0 0 396 84" data-background-color="#ffffff" preserveAspectRatio="xMidYMid meet" height="212" width="1000" xmlns="http://www.w3.org/2000/svg" xmlns:xlink="http://www.w3.org/1999/xlink"><g id="tight-bounds" transform="matrix(1,0,0,1,0.2400000000000091,0.2474012242156789)"><svg viewBox="0 0 395.52 83.50519755156866" height="83.50519755156866" width="395.52"><g><svg viewBox="0 0 524.8552506128519 110.81144161712247" height="83.50519755156866" width="395.52"><g transform="matrix(1,0,0,1,129.33525061285195,34.24234387633769)"><svg viewBox="0 0 395.52 42.326753864447085" height="42.326753864447085" width="395.52"><g id="textblocktransform"><svg viewBox="0 0 395.52 42.326753864447085" height="42.326753864447085" width="395.52" id="textblock"><g><svg viewBox="0 0 395.52 42.326753864447085" height="42.326753864447085" width="395.52"><g transform="matrix(1,0,0,1,0,0)"><svg width="395.52" viewBox="1.5 -36 420.47 45" height="42.326753864447085" data-palette-color="#ffffff"><path d="M36-9.25L36-9.25Q36-7.1 35.1-5.23 34.2-3.35 32.18-1.98 30.15-0.6 26.93 0.2 23.7 1 19 1L19 1Q16.35 1 13.83 0.6 11.3 0.2 9.03-0.55 6.75-1.3 4.83-2.38 2.9-3.45 1.5-4.75L1.5-4.75 4-7.75Q6.85-5.3 10.65-4.03 14.45-2.75 19-2.75L19-2.75Q24.05-2.75 26.15-4.15 28.25-5.55 28.25-8L28.25-8Q28.25-9.9 26.6-11.2 24.95-12.5 21-13.75L21-13.75 11.5-16.75Q6.8-18.25 4.4-20.58 2-22.9 2-26.5L2-26.5Q2-28.35 2.88-30.08 3.75-31.8 5.6-33.13 7.45-34.45 10.33-35.23 13.2-36 17.25-36L17.25-36Q19.7-36 22.13-35.6 24.55-35.2 26.78-34.45 29-33.7 30.93-32.63 32.85-31.55 34.25-30.25L34.25-30.25 31.75-27.25Q28.9-29.7 25.35-30.98 21.8-32.25 17.25-32.25L17.25-32.25Q13.5-32.25 11.63-30.95 9.75-29.65 9.75-27.75L9.75-27.75Q9.75-26.7 10.1-25.93 10.45-25.15 11.28-24.48 12.1-23.8 13.45-23.23 14.8-22.65 16.8-22L16.8-22 26.25-19Q30.8-17.55 33.4-15.2 36-12.85 36-9.25ZM54.25-22.5L48-22.5 48-3.5 54.25-3.5Q55.95-3.5 57.37-4.03 58.8-4.55 59.82-5.7 60.85-6.85 61.42-8.65 62-10.45 62-13L62-13Q62-15.55 61.42-17.35 60.85-19.15 59.82-20.3 58.8-21.45 57.37-21.98 55.95-22.5 54.25-22.5L54.25-22.5ZM41-26L54.25-26Q57.7-26 60.52-25.1 63.35-24.2 65.35-22.5 67.35-20.8 68.42-18.4 69.5-16 69.5-13L69.5-13Q69.5-10 68.42-7.6 67.35-5.2 65.35-3.5 63.35-1.8 60.52-0.9 57.7 0 54.25 0L54.25 0 48 0 48 9 41 9 41-26ZM81-8.25L81-8.25Q81-3.5 86.75-3.5L86.75-3.5 93.75-3.5 93.75-13 86.75-13Q81-13 81-8.25ZM86.75-16.5L93.75-16.5Q93.75-20.1 91.87-21.8 90-23.5 87-23.5L87-23.5Q84.75-23.5 82.59-22.83 80.45-22.15 78.75-21L78.75-21 77-24Q78.09-24.75 79.42-25.3 80.75-25.85 82.15-26.23 83.55-26.6 84.92-26.8 86.3-27 87.5-27L87.5-27Q90.7-27 93.15-26.25 95.59-25.5 97.3-24.1 99-22.7 99.87-20.78 100.75-18.85 100.75-16.5L100.75-16.5 100.75 0 86.75 0Q79.95 0 76.72-2.05 73.5-4.1 73.5-8.25L73.5-8.25Q73.5-12.4 76.72-14.45 79.95-16.5 86.75-16.5L86.75-16.5ZM127.24-26L127.24-22.5 121.24-22.5Q117.84-22.5 116.04-20.68 114.24-18.85 114.24-15.25L114.24-15.25 114.24 0 107.24 0 107.24-15.25Q107.24-20.35 110.47-23.18 113.69-26 119.74-26L119.74-26 127.24-26ZM133.49-9.5L133.49-22.5 128.74-22.5 128.74-26 133.49-26 133.49-34 140.49-34 140.49-26 148.24-26 148.24-22.5 140.49-22.5 140.49-9.5Q140.49-7.6 140.92-6.28 141.34-4.95 142.06-4.13 142.79-3.3 143.74-2.9 144.69-2.5 145.74-2.5L145.74-2.5Q147.24-2.5 148.64-2.98 150.04-3.45 150.99-4L150.99-4 152.49-0.75Q150.99 0 149.06 0.5 147.14 1 145.24 1L145.24 1Q139.59 1 136.54-1.8 133.49-4.6 133.49-9.5L133.49-9.5ZM161.24-8.25L161.24-8.25Q161.24-3.5 166.99-3.5L166.99-3.5 173.99-3.5 173.99-13 166.99-13Q161.24-13 161.24-8.25ZM166.99-16.5L173.99-16.5Q173.99-20.1 172.11-21.8 170.24-23.5 167.24-23.5L167.24-23.5Q164.99-23.5 162.84-22.83 160.69-22.15 158.99-21L158.99-21 157.24-24Q158.34-24.75 159.66-25.3 160.99-25.85 162.39-26.23 163.79-26.6 165.16-26.8 166.54-27 167.74-27L167.74-27Q170.94-27 173.39-26.25 175.84-25.5 177.54-24.1 179.24-22.7 180.11-20.78 180.99-18.85 180.99-16.5L180.99-16.5 180.99 0 166.99 0Q160.19 0 156.96-2.05 153.74-4.1 153.74-8.25L153.74-8.25Q153.74-12.4 156.96-14.45 160.19-16.5 166.99-16.5L166.99-16.5ZM215.24-15.75L215.24 0 208.24 0 208.24-15.75Q208.24-19.35 206.44-20.93 204.64-22.5 201.24-22.5L201.24-22.5 194.74-22.5 194.74 0 187.74 0 187.74-26 201.24-26Q208.39-26 211.81-23.43 215.24-20.85 215.24-15.75L215.24-15.75ZM253.48-31.25L229.23-31.25 229.23-19.25 247.48-19.25 247.48-15.5 229.23-15.5 229.23 0 221.98 0 221.98-35 253.48-35 253.48-31.25ZM265.23-25.5L265.23 0 258.23 0 258.23-25.5 265.23-25.5ZM265.48-32.25L265.48-32.25Q265.48-30.75 264.46-29.63 263.43-28.5 261.73-28.5L261.73-28.5Q260.03-28.5 259-29.63 257.98-30.75 257.98-32.25L257.98-32.25Q257.98-33.75 259-34.88 260.03-36 261.73-36L261.73-36Q263.38-36 264.43-34.88 265.48-33.75 265.48-32.25ZM274.73-9.5L274.73-22.5 269.98-22.5 269.98-26 274.73-26 274.73-34 281.73-34 281.73-26 289.48-26 289.48-22.5 281.73-22.5 281.73-9.5Q281.73-7.6 282.15-6.28 282.58-4.95 283.3-4.13 284.03-3.3 284.98-2.9 285.93-2.5 286.98-2.5L286.98-2.5Q288.48-2.5 289.88-2.98 291.28-3.45 292.23-4L292.23-4 293.73-0.75Q292.23 0 290.3 0.5 288.38 1 286.48 1L286.48 1Q280.83 1 277.78-1.8 274.73-4.6 274.73-9.5L274.73-9.5ZM325.23-15.75L325.23 0 318.23 0 318.23-15.75Q318.23-19.35 316.43-20.93 314.63-22.5 311.23-22.5L311.23-22.5 304.73-22.5 304.73 0 297.73 0 297.73-26 311.23-26Q318.38-26 321.8-23.43 325.23-20.85 325.23-15.75L325.23-15.75ZM346.97-2.5L346.97-2.5Q349.42-2.5 351.55-3.35 353.67-4.2 355.72-5.75L355.72-5.75 357.72-2.75Q356.77-1.9 355.5-1.2 354.22-0.5 352.75-0.03 351.27 0.45 349.67 0.73 348.07 1 346.47 1L346.47 1Q342.92 1 340 0.08 337.07-0.85 335.02-2.63 332.97-4.4 331.85-7 330.72-9.6 330.72-13L330.72-13Q330.72-16.35 331.8-18.98 332.87-21.6 334.8-23.38 336.72-25.15 339.37-26.08 342.02-27 345.22-27L345.22-27Q348.22-27 350.87-26.1 353.52-25.2 355.47-23.48 357.42-21.75 358.57-19.3 359.72-16.85 359.72-13.75L359.72-13.75 359.72-10.25 338.37-10.25Q338.97-6.1 341.25-4.3 343.52-2.5 346.97-2.5ZM345.22-23.75L345.22-23.75Q343.77-23.75 342.52-23.2 341.27-22.65 340.35-21.45 339.42-20.25 338.85-18.35 338.27-16.45 338.22-13.75L338.22-13.75 352.22-13.75Q352.22-16.35 351.62-18.25 351.02-20.15 350.05-21.38 349.07-22.6 347.8-23.18 346.52-23.75 345.22-23.75ZM371.47-20.5L371.47-20.5Q371.47-19.35 372.5-18.4 373.52-17.45 375.97-16.75L375.97-16.75 383.72-14.5Q387.32-13.45 389.27-11.65 391.22-9.85 391.22-7L391.22-7Q391.22-5.2 390.47-3.73 389.72-2.25 388.02-1.2 386.32-0.15 383.62 0.43 380.92 1 376.97 1L376.97 1Q374.92 1 372.95 0.7 370.97 0.4 369.2-0.13 367.42-0.65 365.97-1.33 364.52-2 363.47-2.75L363.47-2.75 365.47-5.75Q367.57-4.45 370.4-3.48 373.22-2.5 376.97-2.5L376.97-2.5Q380.72-2.5 382.22-3.5 383.72-4.5 383.72-6L383.72-6Q383.72-7.15 382.67-8.08 381.62-9 378.97-9.75L378.97-9.75 371.22-12Q368.02-12.95 366-14.73 363.97-16.5 363.97-19.5L363.97-19.5Q363.97-21.1 364.7-22.48 365.42-23.85 366.97-24.85 368.52-25.85 370.92-26.43 373.32-27 376.72-27L376.72-27Q380.87-27 384.25-25.88 387.62-24.75 389.72-23.25L389.72-23.25 387.72-20.25Q385.67-21.55 383.07-22.53 380.47-23.5 376.72-23.5L376.72-23.5Q374.07-23.5 372.77-22.65 371.47-21.8 371.47-20.5ZM402.22-20.5L402.22-20.5Q402.22-19.35 403.24-18.4 404.27-17.45 406.72-16.75L406.72-16.75 414.47-14.5Q418.07-13.45 420.02-11.65 421.97-9.85 421.97-7L421.97-7Q421.97-5.2 421.22-3.73 420.47-2.25 418.77-1.2 417.07-0.15 414.37 0.43 411.67 1 407.72 1L407.72 1Q405.67 1 403.69 0.7 401.72 0.4 399.94-0.13 398.17-0.65 396.72-1.33 395.27-2 394.22-2.75L394.22-2.75 396.22-5.75Q398.32-4.45 401.14-3.48 403.97-2.5 407.72-2.5L407.72-2.5Q411.47-2.5 412.97-3.5 414.47-4.5 414.47-6L414.47-6Q414.47-7.15 413.42-8.08 412.37-9 409.72-9.75L409.72-9.75 401.97-12Q398.77-12.95 396.74-14.73 394.72-16.5 394.72-19.5L394.72-19.5Q394.72-21.1 395.44-22.48 396.17-23.85 397.72-24.85 399.27-25.85 401.67-26.43 404.07-27 407.47-27L407.47-27Q411.62-27 414.99-25.88 418.37-24.75 420.47-23.25L420.47-23.25 418.47-20.25Q416.42-21.55 413.82-22.53 411.22-23.5 407.47-23.5L407.47-23.5Q404.82-23.5 403.52-22.65 402.22-21.8 402.22-20.5Z" opacity="1" transform="matrix(1,0,0,1,0,0)" fill="#ffffff" class="undefined-text-0" data-fill-palette-color="primary" id="text-0"></path></svg></g></svg></g></svg></g></svg></g><g><svg viewBox="0 0 119.34291986754873 110.81144161712247" height="110.81144161712247" width="119.34291986754873"><g><svg xmlns="http://www.w3.org/2000/svg" xmlns:xlink="http://www.w3.org/1999/xlink" version="1.1" x="0" y="0" viewBox="4.444000000000026 7.93958902580945 91.13433988184441 84.61941097419056" enable-background="new 0 0 100 100" xml:space="preserve" height="110.81144161712247" width="119.34291986754873" class="icon-icon-0" data-fill-palette-color="accent" id="icon-0"><g fill="#fe0039" data-fill-palette-color="accent"><path fill-rule="evenodd" clip-rule="evenodd" d="M46.408 25.247c0.088-5.702 0.178-11.403 0.266-17.11C56.966 7.27 66.481 9.18 74.948 15.435c-0.105 0.211-0.22 0.442-0.338 0.672-1.939 3.768-3.876 7.537-5.818 11.302-0.175 0.336-0.398 0.654 0.25 0.867 2.237-4.063 4.483-8.142 6.758-12.267 9.303 6.882 14.035 16.372 16.084 27.497-2.818 0.586-5.641 1.173-8.461 1.76-0.036 0.645 0.331 0.497 0.662 0.435 2.414-0.456 4.83-0.91 7.244-1.361 0.231-0.043 0.464-0.068 0.818-0.119 0.25 1.798 0.521 3.528 0.732 5.267 0.53 4.387 0.085 8.762-0.201 13.14-0.245 3.776-0.297 7.554 0.497 11.283 0.152 0.718 0.442 1.423 0.784 2.076 0.168 0.325 0.556 0.601 0.906 0.761 0.688 0.314 0.87 0.645 0.582 1.336-0.635 1.516-2.997 2.324-4.37 1.393-0.888-0.604-1.722-1.334-2.431-2.141-4.696-5.337-8.529-11.242-11.327-17.787-0.567-1.334-0.789-2.814-1.2-4.219-1.128-3.853-2.701-7.504-4.958-10.845-1.935-2.863-4.227-5.38-7.082-7.353-4.221-2.919-8.96-3.955-14.02-3.856-2.53 0.049-5.052 0.135-7.534 0.689-3.352 0.75-6.31 2.357-9.109 4.263-2.411 1.64-4.743 3.393-7.112 5.093-0.331 0.237-0.675 0.458-1.077 0.73-2.389-3.394-5.518-5.917-9.125-7.847-3.597-1.924-7.438-3.117-11.658-3.624 3.846-5.229 8.76-9.269 13.71-13.375 2.863 3.751 5.677 7.439 8.492 11.127 0.042-0.027 0.082-0.054 0.124-0.081-2.457-3.982-4.914-7.964-7.412-12.013 4.141-2.922 7.977-6.271 12.878-7.83 3.941-1.253 8.035-1.769 12.139-2.165 0.185-0.019 0.374 0.018 0.613 0.032 0.418 5.664 0.834 11.302 1.25 16.939C46.296 25.227 46.352 25.237 46.408 25.247z" fill="#fe0039" data-fill-palette-color="accent"></path><path fill-rule="evenodd" clip-rule="evenodd" d="M72.468 55.667c-0.351-0.021-0.692-0.123-0.984-0.044-1.185 0.321-2.358 0.677-3.525 1.059-0.636 0.209-0.942 0.766-0.827 1.372 0.194 1.005 0.348 2.088 0.847 2.948 1.456 2.517 3.065 4.95 4.642 7.397 0.415 0.646 0.932 1.227 1.373 1.803-0.512 0.73-1.024 1.424-1.5 2.144-1.599 2.435-3.919 3.638-6.76 3.671-1.84 0.023-3.729-0.097-5.519-0.5-3.635-0.82-7.13-0.459-10.605 0.676-4.343 1.418-8.333 3.568-12.066 6.151-4.122 2.852-8.119 5.883-12.171 8.836-0.602 0.439-1.206 0.874-1.902 1.379 0.579-1.63 1.154-3.129 1.645-4.654 2.111-6.558 3.999-13.181 5.49-19.909 0.145-0.658 0.495-0.74 1.035-0.796 3.223-0.328 6.318-1.081 9.039-2.942 1.817-1.244 3.201-2.842 3.851-4.995 0.032-0.108 0.043-0.224 0.08-0.417-5.098 0.276-10.14 0.551-15.24 0.827-0.253 1.842-0.496 3.651-0.76 5.46-0.037 0.246-0.114 0.563-0.289 0.703-2.415 1.903-4.85 3.782-7.279 5.667-0.082-0.064-0.163-0.13-0.245-0.196 0.583-2.277 1.11-4.569 1.76-6.828 1.68-5.837 3.929-11.429 7.37-16.479 2.703-3.964 6.001-7.286 10.366-9.43 8.654-4.252 22.912-2.941 29.639 9.997C71.191 50.99 72.284 54.022 72.468 55.667z" fill="#fe0039" data-fill-palette-color="accent"></path></g></svg></g></svg></g></svg></g><defs></defs></svg><rect width="395.52" height="83.50519755156866" fill="none" stroke="none" visibility="hidden"></rect></g></svg></g></svg>